<?xml version="1.0" encoding="utf-8"?>
<!-- Generator: Adobe Illustrator 26.3.1, SVG Export Plug-In . SVG Version: 6.00 Build 0)  -->
<svg version="1.1" id="Layer_1" xmlns="http://www.w3.org/2000/svg" xmlns:xlink="http://www.w3.org/1999/xlink" x="0px" y="0px"
	 width="245px" height="72.6px" viewBox="0 0 245 72.6" style="enable-background:new 0 0 245 72.6;" xml:space="preserve">
<style type="text/css">
	.st0{fill:#0174C3;}
	.st1{fill:#707E86;}
	.st2{fill:#54A245;}
	.st3{fill:#2A2F6C;}
	.st4{fill-rule:evenodd;clip-rule:evenodd;fill:#D6D3D2;}
	.st5{fill-rule:evenodd;clip-rule:evenodd;fill:#54A245;}
	.st6{fill:#29316C;}
</style>
<g id="a">
</g>
<g>
	<g>
		<g>
			<g>
				<path class="st0" d="M133.2,65.7c0-1.2,0.3-2.2,1-2.9c0.6-0.7,1.5-1.1,2.5-1.1c0.3,0,0.6,0,0.9,0.1c0.3,0.1,0.5,0.2,0.7,0.3
					c0.2,0.1,0.3,0.2,0.4,0.4c0.1,0.1,0.2,0.2,0.3,0.3l0.1,0.1h0c0-0.1,0-0.3,0-0.5v-3.5h1.5v10.6H139v-0.7l0-0.5h0
					c0,0,0,0.1-0.1,0.1c0,0.1-0.1,0.2-0.3,0.3c-0.1,0.2-0.3,0.3-0.5,0.4c-0.2,0.1-0.4,0.2-0.7,0.3c-0.3,0.1-0.6,0.1-1,0.1
					c-1,0-1.8-0.4-2.4-1.1C133.5,67.8,133.2,66.9,133.2,65.7z M134.7,65.7c0,0.8,0.2,1.5,0.6,2c0.4,0.5,0.9,0.7,1.6,0.7
					c0.6,0,1.1-0.2,1.6-0.7c0.4-0.5,0.6-1.1,0.6-2c0-0.7-0.2-1.4-0.6-1.9c-0.4-0.5-0.9-0.8-1.6-0.8c-0.6,0-1.1,0.2-1.6,0.7
					C134.9,64.2,134.7,64.8,134.7,65.7z"/>
				<path class="st0" d="M141.6,60.4v-1.5h1.5v1.5H141.6z M141.6,69.5v-7.6h1.5v7.6H141.6z"/>
				<path class="st0" d="M145.3,70.9c0.6,0.3,1.3,0.5,2.1,0.5c0.7,0,1.3-0.2,1.7-0.5c0.4-0.3,0.7-0.9,0.7-1.6v-0.6l0-0.5h0
					c-0.5,0.8-1.2,1.2-2.2,1.2c-1,0-1.9-0.4-2.5-1.1c-0.6-0.7-0.9-1.7-0.9-2.8c0-1.1,0.3-2,0.9-2.7c0.6-0.7,1.4-1.1,2.4-1.1
					c0.3,0,0.7,0,0.9,0.1c0.3,0.1,0.5,0.2,0.7,0.3c0.2,0.1,0.3,0.2,0.4,0.3c0.1,0.1,0.2,0.2,0.2,0.3l0.1,0.1h0c0-0.1,0-0.1,0-0.2
					v-0.7h1.4v7.3c0,0.6-0.1,1.1-0.3,1.6c-0.2,0.5-0.5,0.8-0.9,1.1c-0.4,0.3-0.8,0.5-1.2,0.6c-0.4,0.1-0.9,0.2-1.4,0.2
					c-0.9,0-1.8-0.2-2.6-0.6L145.3,70.9z M147.8,68.1c0.6,0,1.1-0.2,1.4-0.6c0.4-0.4,0.6-1.1,0.6-2c0-1.7-0.7-2.5-2.1-2.5
					c-0.7,0-1.2,0.2-1.5,0.7c-0.4,0.4-0.5,1.1-0.5,1.8c0,0.8,0.2,1.4,0.6,1.9C146.6,67.9,147.1,68.1,147.8,68.1z"/>
				<path class="st0" d="M152.5,60.4v-1.5h1.5v1.5H152.5z M152.5,69.5v-7.6h1.5v7.6H152.5z"/>
				<path class="st0" d="M155,65.7c0-1.1,0.4-2.1,1.1-2.8c0.8-0.8,1.7-1.1,2.9-1.1c0.6,0,1.1,0.1,1.6,0.3c0.5,0.2,0.8,0.4,1,0.6
					l0.3,0.3l-0.7,1c-0.1-0.1-0.1-0.1-0.3-0.2c-0.1-0.1-0.4-0.2-0.7-0.4c-0.4-0.2-0.7-0.2-1.1-0.2c-0.8,0-1.4,0.3-1.9,0.8
					c-0.5,0.5-0.7,1.2-0.7,1.9s0.3,1.4,0.8,1.9c0.5,0.5,1.1,0.8,1.9,0.8c0.4,0,0.8-0.1,1.2-0.3c0.4-0.2,0.7-0.3,0.9-0.5l0.3-0.3
					l0.6,1.1c0,0-0.1,0.1-0.1,0.1c-0.1,0.1-0.2,0.2-0.4,0.3c-0.2,0.1-0.4,0.3-0.6,0.4c-0.2,0.1-0.5,0.2-0.8,0.3
					c-0.3,0.1-0.7,0.1-1.1,0.1c-1.2,0-2.2-0.4-2.9-1.1C155.4,67.8,155,66.8,155,65.7z"/>
				<path class="st0" d="M162.3,65.7c0-1.2,0.4-2.1,1.1-2.9c0.7-0.7,1.6-1.1,2.7-1.1c1,0,1.8,0.3,2.4,1c0.6,0.7,0.9,1.5,0.9,2.5
					l0,0.6h-5.5c0,0.8,0.3,1.4,0.8,1.9c0.5,0.4,1.1,0.7,1.8,0.7c0.4,0,0.8-0.1,1.1-0.2c0.4-0.1,0.7-0.3,0.8-0.4l0.3-0.2l0.6,1.1
					c-0.1,0.1-0.2,0.2-0.4,0.3c-0.2,0.1-0.5,0.3-1,0.5c-0.5,0.2-1,0.3-1.6,0.3c-1.2,0-2.1-0.4-2.9-1.1
					C162.6,67.8,162.3,66.8,162.3,65.7z M163.8,64.8h4c0-0.6-0.2-1.1-0.5-1.4c-0.3-0.3-0.8-0.5-1.3-0.5c-0.6,0-1.1,0.2-1.5,0.5
					C164.2,63.7,163.9,64.2,163.8,64.8z"/>
				<path class="st0" d="M170.4,69.5v-7.6h1.4v1.3l0,0.6h0c0.2-0.6,0.5-1.1,0.9-1.4c0.4-0.4,0.9-0.6,1.5-0.6l0.4,0v1.4
					c-0.1,0-0.3,0-0.4,0c-0.5,0-0.9,0.2-1.3,0.5c-0.4,0.3-0.7,0.8-0.8,1.3c-0.1,0.4-0.2,0.8-0.2,1.4v3.1H170.4z"/>
				<path class="st0" d="M176.4,66.7v-3.5h-1V62h1v-2.2h1.4V62h1.8v1.2h-1.8v3.4c0,0.3,0,0.5,0.1,0.8c0.1,0.2,0.2,0.4,0.3,0.5
					c0.1,0.1,0.2,0.2,0.4,0.3c0.2,0.1,0.3,0.1,0.4,0.1c0.1,0,0.3,0,0.4,0l0.3,0v1.3c-0.1,0-0.3,0-0.5,0c-0.2,0-0.5,0-0.7,0
					c-0.2,0-0.5-0.1-0.7-0.2c-0.3-0.1-0.5-0.3-0.7-0.5c-0.2-0.2-0.4-0.5-0.5-0.8C176.5,67.6,176.4,67.2,176.4,66.7z"/>
				<path class="st0" d="M180.7,58.9c-0.6,0-1.1,0.5-1.1,1.1c0,0.6,0.5,1.1,1.1,1.1c0.6,0,1.1-0.5,1.1-1.1
					C181.8,59.4,181.3,58.9,180.7,58.9 M180.7,60.9c-0.5,0-0.9-0.4-0.9-0.9c0-0.5,0.4-0.9,0.9-0.9c0.5,0,0.9,0.4,0.9,0.9
					C181.5,60.5,181.1,60.9,180.7,60.9"/>
				<g>
					<path class="st0" d="M180.3,60.6v-1.2h0.4c0.1,0,0.2,0,0.2,0c0.1,0,0.1,0.1,0.1,0.1c0,0.1,0.1,0.1,0.1,0.2c0,0.1,0,0.1-0.1,0.2
						c0,0.1-0.1,0.1-0.2,0.1v0c0,0,0,0,0,0.1l0.3,0.5H181l-0.3-0.5h-0.3v0.5H180.3z M180.4,59.9h0.2c0.1,0,0.1,0,0.2-0.1
						c0,0,0.1-0.1,0.1-0.2c0-0.1,0-0.2-0.1-0.2c0,0-0.1,0-0.2,0h-0.2V59.9z"/>
				</g>
			</g>
		</g>
		<g>
			<g>
				<path class="st1" d="M63.9,65.9c0,1.1-0.3,2.1-0.8,2.8c-0.5,0.7-1.2,1-2.1,1c-0.9,0-1.6-0.3-2.1-0.9v3.6h-1.3V62.1h1.2l0.1,0.8
					c0.5-0.6,1.2-1,2.2-1c0.9,0,1.6,0.3,2.1,1c0.5,0.7,0.8,1.6,0.8,2.8V65.9z M62.6,65.7c0-0.8-0.2-1.5-0.5-2
					c-0.4-0.5-0.9-0.7-1.5-0.7c-0.8,0-1.4,0.3-1.7,1v3.6c0.4,0.7,1,1,1.8,1c0.6,0,1.1-0.2,1.5-0.7C62.4,67.4,62.6,66.7,62.6,65.7z"
					/>
				<path class="st1" d="M65.1,65.7c0-0.7,0.1-1.4,0.4-2c0.3-0.6,0.7-1,1.2-1.4c0.5-0.3,1.1-0.5,1.8-0.5c1,0,1.8,0.4,2.5,1.1
					c0.6,0.7,0.9,1.6,0.9,2.8v0.1c0,0.7-0.1,1.4-0.4,2c-0.3,0.6-0.7,1-1.2,1.4c-0.5,0.3-1.1,0.5-1.8,0.5c-1,0-1.8-0.4-2.5-1.1
					C65.4,67.9,65.1,67,65.1,65.7L65.1,65.7z M66.4,65.9c0,0.8,0.2,1.5,0.6,2c0.4,0.5,0.9,0.8,1.5,0.8c0.6,0,1.2-0.3,1.5-0.8
					c0.4-0.5,0.6-1.2,0.6-2.1c0-0.8-0.2-1.5-0.6-2c-0.4-0.5-0.9-0.8-1.6-0.8c-0.6,0-1.1,0.3-1.5,0.8C66.6,64.2,66.4,64.9,66.4,65.9z
					"/>
				<path class="st1" d="M80.1,67.8l1.4-5.7h1.3l-2.2,7.5h-1l-1.8-5.7L76,69.5h-1l-2.2-7.5H74l1.5,5.6l1.7-5.6h1L80.1,67.8z"/>
				<path class="st1" d="M87.1,69.7c-1,0-1.8-0.3-2.5-1s-1-1.6-1-2.7v-0.2c0-0.7,0.1-1.4,0.4-2c0.3-0.6,0.7-1,1.2-1.4
					c0.5-0.3,1.1-0.5,1.7-0.5c1,0,1.7,0.3,2.3,1c0.5,0.6,0.8,1.6,0.8,2.8v0.5H85c0,0.7,0.2,1.3,0.6,1.8s0.9,0.7,1.6,0.7
					c0.5,0,0.8-0.1,1.1-0.3c0.3-0.2,0.6-0.4,0.8-0.7l0.8,0.6C89.3,69.2,88.4,69.7,87.1,69.7z M86.9,63c-0.5,0-0.9,0.2-1.3,0.6
					c-0.4,0.4-0.6,0.9-0.6,1.6h3.7V65c0-0.6-0.2-1.2-0.5-1.5C87.9,63.2,87.5,63,86.9,63z"/>
				<path class="st1" d="M95,63.2c-0.2,0-0.4,0-0.6,0c-0.8,0-1.4,0.4-1.7,1.1v5.3h-1.3v-7.5h1.2l0,0.9c0.4-0.7,1-1,1.8-1
					c0.2,0,0.4,0,0.6,0.1V63.2z"/>
				<path class="st1" d="M99.1,69.7c-1,0-1.8-0.3-2.5-1c-0.6-0.7-1-1.6-1-2.7v-0.2c0-0.7,0.1-1.4,0.4-2c0.3-0.6,0.7-1,1.2-1.4
					c0.5-0.3,1.1-0.5,1.7-0.5c1,0,1.7,0.3,2.3,1c0.5,0.6,0.8,1.6,0.8,2.8v0.5H97c0,0.7,0.2,1.3,0.6,1.8s0.9,0.7,1.6,0.7
					c0.5,0,0.8-0.1,1.1-0.3c0.3-0.2,0.6-0.4,0.8-0.7l0.8,0.6C101.3,69.2,100.4,69.7,99.1,69.7z M99,63c-0.5,0-0.9,0.2-1.3,0.6
					c-0.4,0.4-0.6,0.9-0.6,1.6h3.7V65c0-0.6-0.2-1.2-0.5-1.5C99.9,63.2,99.5,63,99,63z"/>
				<path class="st1" d="M103.1,65.7c0-1.1,0.3-2.1,0.8-2.8c0.5-0.7,1.3-1,2.1-1c0.9,0,1.6,0.3,2.1,0.9v-3.9h1.3v10.6h-1.2l-0.1-0.8
					c-0.5,0.6-1.2,0.9-2.1,0.9c-0.9,0-1.6-0.4-2.1-1.1C103.4,67.9,103.1,67,103.1,65.7L103.1,65.7z M104.4,65.9c0,0.8,0.2,1.5,0.5,2
					c0.4,0.5,0.8,0.7,1.5,0.7c0.8,0,1.4-0.4,1.8-1.1v-3.4c-0.4-0.7-1-1.1-1.8-1.1c-0.6,0-1.1,0.2-1.5,0.7
					C104.6,64.2,104.4,64.9,104.4,65.9z"/>
				<path class="st1" d="M121.1,65.9c0,1.1-0.3,2.1-0.8,2.8c-0.5,0.7-1.2,1-2.1,1c-0.9,0-1.7-0.3-2.2-1l-0.1,0.9h-1.2V58.9h1.3v4
					c0.5-0.6,1.2-1,2.1-1c0.9,0,1.6,0.3,2.1,1s0.8,1.6,0.8,2.8V65.9z M119.9,65.7c0-0.9-0.2-1.5-0.5-2c-0.3-0.5-0.8-0.7-1.5-0.7
					c-0.8,0-1.4,0.4-1.8,1.2v3.2c0.4,0.8,1,1.2,1.8,1.2c0.6,0,1.1-0.2,1.4-0.7C119.7,67.4,119.9,66.7,119.9,65.7z"/>
				<path class="st1" d="M125,67.7l1.7-5.6h1.4l-3,8.6c-0.5,1.2-1.2,1.9-2.2,1.9l-0.2,0l-0.5-0.1v-1l0.3,0c0.4,0,0.8-0.1,1-0.3
					c0.2-0.2,0.4-0.5,0.6-1l0.3-0.8l-2.7-7.4h1.4L125,67.7z"/>
			</g>
		</g>
	</g>
	<path class="st2" d="M1.4,49.8v-5.4c3.2,1.2,6.9,1.7,11,1.7c3.1,0,4.7-0.9,4.7-2.7c0-1.6-1-2.5-3.1-2.5H8.7C2.9,40.9,0,38.2,0,33
		c0-5.4,4.3-8.1,12.8-8.1c3.6,0,7,0.5,10.2,1.5v5.4c-3.2-1.2-6.7-1.7-10.4-1.7c-3.9,0-5.9,0.9-5.9,2.7c0,1.6,1.1,2.5,3.4,2.5h4.6
		c6.4,0,9.6,2.6,9.6,7.9c0,5.4-4.1,8.1-12.2,8.1C8.1,51.2,4.6,50.7,1.4,49.8z"/>
	<path class="st2" d="M29.4,49.8v-5.4c3.2,1.2,6.9,1.7,11,1.7c3.1,0,4.7-0.9,4.7-2.7c0-1.6-1-2.5-3.1-2.5h-5.2
		c-5.8,0-8.7-2.6-8.7-7.9c0-5.4,4.3-8.1,12.8-8.1c3.6,0,7,0.5,10.2,1.5v5.4c-3.2-1.2-6.7-1.7-10.4-1.7c-3.9,0-5.9,0.9-5.9,2.7
		c0,1.6,1.1,2.5,3.4,2.5h4.6c6.4,0,9.6,2.6,9.6,7.9c0,5.4-4.1,8.1-12.2,8.1C36.2,51.2,32.6,50.7,29.4,49.8z"/>
	<path class="st2" d="M64.7,15.7V51h-7.2V15.7H64.7z"/>
	<path class="st3" d="M71.5,49.8v-5.4c3.2,1.2,6.9,1.7,11,1.7c3.1,0,4.7-0.9,4.7-2.7c0-1.6-1-2.5-3.1-2.5h-5.2
		c-5.8,0-8.7-2.6-8.7-7.9c0-5.4,4.3-8.1,12.8-8.1c3.6,0,7,0.5,10.2,1.5v5.4c-3.2-1.2-6.7-1.7-10.4-1.7c-3.9,0-5.9,0.9-5.9,2.7
		c0,1.6,1.1,2.5,3.4,2.5h4.6c6.4,0,9.6,2.6,9.6,7.9c0,5.4-4.1,8.1-12.2,8.1C78.3,51.2,74.7,50.7,71.5,49.8z"/>
	<path class="st3" d="M98.1,20.9h5.4l1.1,4.2h6.7v5.2h-5.9v11.9c0,2.4,1.2,3.6,3.5,3.6h2.4V51h-5.9c-4.8,0-7.2-2.3-7.2-7V20.9z"/>
	<path class="st3" d="M113.5,38c0-8.8,4.8-13.2,14.5-13.2c9.7,0,14.5,4.4,14.5,13.2c0,8.8-4.8,13.2-14.5,13.2
		C118.4,51.2,113.6,46.8,113.5,38z M128,46.1c4.8,0,7.2-2.7,7.2-8.1c0-5.3-2.4-7.9-7.2-7.9c-4.8,0-7.2,2.6-7.2,7.9
		C120.8,43.4,123.2,46.1,128,46.1z"/>
	<path class="st3" d="M146.2,51V25.1h5.6l0.9,3.3c2.5-2.2,5.2-3.3,8-3.3v5.3c-2.7,0-5.1,1.1-7.2,3.3V51H146.2z"/>
	<path class="st3" d="M187.6,40.6h-18.8c0,3.5,3.2,5.2,9.5,5.2c2.9,0,5.8-0.2,8.7-0.7v5.2c-2.5,0.5-5.8,0.7-9.8,0.7
		c-10.4,0-15.6-4.4-15.6-13.2c0-8.4,4.8-12.6,14.3-12.6C185.4,25.1,189.3,30.3,187.6,40.6z M168.8,35.8h12c0.3-3.7-1.7-5.6-5.7-5.6
		C171.2,30.2,169.2,32.1,168.8,35.8z"/>
	<path class="st4" d="M236.1,60.4c-4.7,4-10.7,6.4-17.4,6.4c-6.6,0-12.7-2.4-17.4-6.4c-5.5,1-9,2.5-9,4.1c0,3,11.8,5.5,26.3,5.5
		c14.5,0,26.3-2.5,26.3-5.5C245,62.8,241.5,61.4,236.1,60.4z"/>
	<g>
		<path class="st3" d="M187.1,27.4v-2.1h-0.8V25h1.9v0.3h-0.8v2.1H187.1z"/>
		<path class="st3" d="M188.6,27.4V25h0.5l0.6,1.7c0.1,0.2,0.1,0.3,0.1,0.4c0-0.1,0.1-0.2,0.1-0.4l0.6-1.7h0.4v2.4h-0.3v-2l-0.7,2
			h-0.3l-0.7-2.1v2.1H188.6z"/>
	</g>
	<path class="st5" d="M218.7,13.2c6.7,0,12.7,2.4,17.4,6.5c0.3-1.2,0.5-2.4,0.5-3.7c0-8.8-8-16-17.9-16c-9.9,0-17.9,7.2-17.9,16
		c0,1.3,0.2,2.5,0.5,3.7C206,15.7,212.1,13.2,218.7,13.2z"/>
	<g>
		<path class="st6" d="M218.7,15.6c-13.5,0-24.5,11-24.5,24.4c0,13.5,11,24.4,24.5,24.4c13.5,0,24.4-11,24.4-24.4
			C243.2,26.5,232.2,15.6,218.7,15.6z M223.7,52.2h-9.6l1.7-14c-1.8-1-3-3-3-5.3c0-3.3,2.6-6,5.9-6c3.3,0,5.9,2.7,5.9,6
			c0,2.3-1.3,4.4-3.2,5.4L223.7,52.2z"/>
	</g>
</g>
</svg>
